# xmcd
#
# Track frame offsets: 
#        150
#        11500
#        34646
#        52728
#        70712
#        84072
#        107406
#        122784
#        137155
#        149953
#        166270
#        192896
#        209299
#        218611
#
# Disc length: 3227 seconds
#
# Revision: 2
# Processed by: cddbd v1.5PL3 Copyright (c) Steve Scherf et al.
# Submitted via: ExactAudioCopy v0.95a4
#
DISCID=b90c990e
DTITLE=Pino Daniele - Passi d'autore
DYEAR=1900
DGENRE=
TTITLE0=Arriverà l'aurora
TTITLE1=Pigro
TTITLE2=Bella da vivere
TTITLE3=La mia casa sei tu
TTITLE4=Gli stessi sguardi
TTITLE5=Nuages sulle note
TTITLE6=Dammi una seconda vita
TTITLE7=Deja-vu
TTITLE8=Ali di cera
TTITLE9=La nostra estate insieme
TTITLE10=Isola grande
TTITLE11=Tango della buena suerte
TTITLE12=Concerto per noi due
TTITLE13=Sofia sulle note
EXTD=
EXTT0=
EXTT1=
EXTT2=
EXTT3=
EXTT4=
EXTT5=
EXTT6=
EXTT7=
EXTT8=
EXTT9=
EXTT10=
EXTT11=
EXTT12=
EXTT13=
PLAYORDER=
